<?xml version="1.0" encoding="utf-8"?><svg xmlns="http://www.w3.org/2000/svg" xmlns:xlink="http://www.w3.org/1999/xlink"><symbol viewBox="0 0 12 7" id="arrow-down" xmlns="http://www.w3.org/2000/svg"><path d="M1 1l5 5 5-5"/></symbol><symbol viewBox="0 0 32 32" id="arrow-right" xmlns="http://www.w3.org/2000/svg"><path clip-rule="evenodd" d="M32 16.009c0-.267-.11-.522-.293-.714l-9.899-9.999a.993.993 0 00-1.414 0 1.016 1.016 0 000 1.428l8.193 8.275H1c-.552 0-1 .452-1 1.01s.448 1.01 1 1.01h27.586l-8.192 8.275a1.017 1.017 0 000 1.428.994.994 0 001.414 0l9.899-9.999c.187-.189.29-.449.293-.714z" fill-rule="evenodd"/></symbol><symbol viewBox="0 0 6.35 6.35" id="mail" xmlns="http://www.w3.org/2000/svg"><path d="M1.081 1.58l2.095 1.446.047-.032.11-.076a.149.132 0 01.005-.003L5.27 1.581zm4.475.138L3.653 3.03 5.556 4.6zm-4.76 0v2.879l1.896-1.57zm2.133 1.473L1.035 4.759h4.277L3.415 3.196l-.148.102a.149.132 0 01-.183 0z"/></symbol><symbol viewBox="0 0 20 19" id="tel" xmlns="http://www.w3.org/2000/svg"><path d="M2.15.695l-.886 1.461s-3.426 4.792 3.906 11.98c7.38 7.188 11.98 3.906 11.98 3.906l1.485-.91a1.75 1.75 0 00.192-2.613l-1.773-1.748a1.701 1.701 0 00-2.252-.168L12.909 13.8s-1.246.742-4.792-2.756C4.57 7.547 5.36 6.253 5.36 6.253l1.2-1.868a1.75 1.75 0 00-.167-2.396L4.642.239a1.749 1.749 0 00-2.491.456z"/></symbol></svg>