<svg width="39" height="39" fill="none" xmlns="http://www.w3.org/2000/svg"><circle cx="19.5" cy="19.5" r="18" stroke="#039951" stroke-width="3"/><path d="M17.63 23.544c0-1.093.134-1.964.4-2.613.265-.648.75-1.285 1.452-1.91.711-.633 1.184-1.145 1.418-1.535.235-.399.352-.817.352-1.254 0-1.32-.61-1.98-1.828-1.98-.578 0-1.043.18-1.395.538-.343.352-.523.84-.539 1.465h-3.398c.015-1.492.496-2.66 1.441-3.503.953-.844 2.25-1.266 3.89-1.266 1.657 0 2.942.402 3.856 1.207.914.797 1.371 1.926 1.371 3.387 0 .664-.148 1.293-.445 1.886-.297.586-.816 1.239-1.558 1.957l-.95.903c-.593.57-.933 1.238-1.02 2.004l-.046.714h-3zm-.339 3.598c0-.523.176-.953.527-1.289.36-.344.817-.516 1.371-.516.555 0 1.008.172 1.36.516.36.336.539.766.539 1.29 0 .515-.176.94-.527 1.276-.344.336-.801.504-1.372.504-.57 0-1.03-.168-1.382-.504-.344-.335-.516-.761-.516-1.277z" fill="#039951"/></svg>