<svg width="36" height="58" fill="none" xmlns="http://www.w3.org/2000/svg"><path fill="#039951" d="M0 0h36v40H0z"/><circle cx="18" cy="40" r="18" fill="#039951"/><path d="M16.549 28.927c.3-.921 1.603-.921 1.902 0l1.406 4.328a1 1 0 00.951.691h4.552c.968 0 1.371 1.24.587 1.81l-3.682 2.674a1 1 0 00-.363 1.118l1.406 4.329c.3.921-.755 1.687-1.538 1.118l-3.682-2.675a1 1 0 00-1.176 0l-3.682 2.675c-.783.57-1.838-.197-1.539-1.118l1.407-4.329a1 1 0 00-.363-1.118l-3.682-2.675c-.784-.57-.381-1.809.588-1.809h4.55a1 1 0 00.952-.69l1.406-4.329z" fill="#fff"/></svg>