<svg width="36" height="36" fill="none" xmlns="http://www.w3.org/2000/svg"><g clip-path="url(#clip0)"><path d="M26.39 0H9.78C4.686 0 .526 4.24.526 9.456v16.218c0 5.2 4.168 9.456 9.252 9.456H26.39c5.092 0 9.252-4.24 9.252-9.456V9.456C35.65 4.256 31.482 0 26.39 0z" fill="url(#paint0_linear)"/><path d="M27.362 9.707l-3.3 16.653a1.227 1.227 0 01-1.735.601l-7.621-5.844-2.772-1.337-4.668-1.573s-.713-.255-.771-.81c-.058-.555.806-.852.806-.852l18.55-7.278s1.51-.67 1.51.44z" fill="#fff"/><path d="M14.12 26.175s-.224-.023-.502-.898c-.277-.875-1.684-5.497-1.684-5.497l11.202-7.117s.648-.385.625 0c0 0 .115.07-.232.386-.347.316-8.8 7.922-8.8 7.922" fill="#D2E5F1"/><path d="M17.627 23.357l-3.014 2.753a.528.528 0 01-.494.065l.578-5.108" fill="#B5CFE4"/></g><defs><linearGradient id="paint0_linear" x1=".52" y1="17.567" x2="35.65" y2="17.567" gradientUnits="userSpaceOnUse"><stop stop-color="#42BCE8"/><stop offset="1" stop-color="#23A7DC"/></linearGradient><clipPath id="clip0"><path fill="#fff" transform="translate(.52)" d="M0 0h35.13v35.13H0z"/></clipPath></defs></svg>