<svg width="36" height="36" fill="none" xmlns="http://www.w3.org/2000/svg"><g clip-path="url(#clip0)"><path d="M25.87 0H9.26C4.167 0 .008 4.24.008 9.456v16.218c0 5.2 4.167 9.456 9.252 9.456h16.61c5.093 0 9.252-4.24 9.252-9.456V9.456C35.13 4.252 30.962 0 25.87 0z" fill="#7D3DAF"/><path d="M26.059 19.514c-.54 4.475-3.74 4.76-4.33 4.953-1.801.449-3.663.61-5.516.478l-3.18 3.524v-4.06h-.027c-4.271-1.214-4.129-5.782-4.078-8.16.05-2.379.493-4.349 1.788-5.663 2.34-2.17 7.163-1.847 7.163-1.847 4.07 0 6.021 1.272 6.472 1.696 1.504 1.315 2.27 4.468 1.708 9.082v-.003zm-.594-10.197c-.536-.505-2.698-2.112-7.51-2.131 0 0-5.677-.351-8.445 2.247-1.542 1.577-2.082 3.882-2.14 6.746-.058 2.864-.13 8.223 4.92 9.676v2.217s-.036.898.543 1.083c.697.22 1.11-.463 1.777-1.199.385-.386.871-.995 1.253-1.45 2.148.204 4.316.041 6.41-.481.698-.235 4.626-.752 5.282-6.11.663-5.532-.32-9.025-2.094-10.601" fill="#fff"/><path d="M22.386 20.18s-.647-.55-.963-.77c-.334-.244-.68-.469-1.037-.675a.894.894 0 00-1.157.166l-.416.536a.647.647 0 01-.629.208 4.406 4.406 0 01-1.927-1.191 3.994 3.994 0 01-1.234-2.047v-.047a.82.82 0 01.131-.628h.024c.28-.258.801-.578.87-.883.205-.524-.685-1.623-.813-1.82a8.779 8.779 0 00-.875-1.017.848.848 0 00-1.021-.089h-.023c-1.115.771-1.52 1.188-1.408 1.835l.058.262a13.976 13.976 0 003.239 5.355 14.264 14.264 0 005.073 3.365 1.393 1.393 0 001.384-.385 4.42 4.42 0 00.867-1.095.829.829 0 00-.17-1.068m-2.648-3.916a.127.127 0 01-.127-.124 1.604 1.604 0 00-.386-1.052 1.415 1.415 0 00-.99-.386.131.131 0 01-.12-.139.13.13 0 01.041-.091.132.132 0 01.094-.036c.431.003.845.172 1.157.47.292.339.452.772.45 1.219a.131.131 0 01-.119.139z" fill="#fff"/><path d="M20.986 16.711a.13.13 0 01-.127-.135 3.118 3.118 0 00-.77-2.228 2.808 2.808 0 00-.953-.698 3.945 3.945 0 00-1.284-.304.132.132 0 01.02-.262 3.47 3.47 0 012.409 1.087 3.4 3.4 0 01.836 2.413.127.127 0 01-.127.127" fill="#fff"/><path d="M22.281 17.232a.127.127 0 01-.127-.128 6.283 6.283 0 00-.35-2.112 4.437 4.437 0 00-1.018-1.596 4.565 4.565 0 00-1.52-1.014 4.959 4.959 0 00-1.85-.35.128.128 0 01-.118-.082.127.127 0 01-.009-.05.132.132 0 01.127-.13 4.904 4.904 0 013.547 1.437c.48.478.848 1.056 1.08 1.692a6.53 6.53 0 01.385 2.202.13.13 0 01-.128.13h-.019z" fill="#fff"/></g><defs><clipPath id="clip0"><path fill="#fff" d="M0 0h35.13v35.13H0z"/></clipPath></defs></svg>