<svg width="36" height="36" fill="none" xmlns="http://www.w3.org/2000/svg"><g clip-path="url(#clip0)"><path d="M.26 9.26v16.611c0 5.097 4.24 9.252 9.456 9.252h16.218c5.2 0 9.456-4.163 9.456-9.252V9.261c0-5.093-4.24-9.252-9.456-9.252H9.716C4.516 0 .26 4.184.26 9.26z" fill="url(#paint0_linear)"/><path fill-rule="evenodd" clip-rule="evenodd" d="M26.97 9.117A11.95 11.95 0 008.125 23.554l-1.7 6.198 6.36-1.669a11.95 11.95 0 005.717 1.457 11.95 11.95 0 008.462-20.43l.008.007zm-8.46 18.407a9.93 9.93 0 01-5.062-1.388l-.362-.215-3.77 1.006 1.002-3.67-.235-.386a9.946 9.946 0 118.427 4.66v-.007zm5.455-7.448c-.3-.15-1.77-.87-2.043-.971-.274-.1-.474-.15-.675.15-.2.301-.771.972-.944 1.157-.174.185-.351.223-.648.073a8.173 8.173 0 01-2.405-1.484 8.993 8.993 0 01-1.666-2.07c-.173-.3 0-.463.131-.61.131-.146.3-.35.451-.524a2.05 2.05 0 00.297-.497.557.557 0 00-.023-.524c-.077-.15-.675-1.623-.921-2.22-.247-.598-.49-.505-.675-.513-.185-.008-.386 0-.574 0a1.107 1.107 0 00-.794.385 3.353 3.353 0 00-1.049 2.494c0 1.473 1.072 2.892 1.222 3.084.15.193 2.109 3.22 5.108 4.514.555.242 1.124.451 1.704.629.61.185 1.256.226 1.885.12.574-.085 1.77-.725 2.016-1.423.197-.445.258-.94.173-1.419-.073-.127-.273-.2-.57-.35z" fill="#fff"/></g><defs><linearGradient id="paint0_linear" x1="32.641" y1="32.386" x2="3.008" y2="2.749" gradientUnits="userSpaceOnUse"><stop stop-color="#25CF43"/><stop offset="1" stop-color="#61FD7D"/></linearGradient><clipPath id="clip0"><path fill="#fff" transform="translate(.26)" d="M0 0h35.13v35.13H0z"/></clipPath></defs></svg>