<svg width="103" height="104" fill="none" xmlns="http://www.w3.org/2000/svg"><path d="M102.738 68.22a1.785 1.785 0 00-2.414-.552L90.667 73.7a1.518 1.518 0 01-2.046-.425l-1.207-1.799c-2.728-4.034-7.303-10.868-13.393-20.005a1.49 1.49 0 01.344-2.014l11.866-8.992c.353-.283.58-.692.634-1.14a1.748 1.748 0 00-.347-1.296 1.77 1.77 0 00-2.472-.334L72.18 46.687a5.01 5.01 0 00-1.38 1.611 4.974 4.974 0 00-.587 2.034H44.055a1.82 1.82 0 00-.755.168l-2.251 1.05h-10.02a4.95 4.95 0 00-.303-2.473 4.984 4.984 0 00-1.47-2.018L16.248 36.383a1.783 1.783 0 00-2.487.24 1.742 1.742 0 00-.399 1.284 1.734 1.734 0 00.64 1.185l13.013 10.653a1.472 1.472 0 01.266 1.996l-13.568 19.25a1.506 1.506 0 01-1.974.438L2.687 66.35a1.777 1.777 0 00-2.458.637 1.749 1.749 0 00.72 2.42l9.053 5.078a5.09 5.09 0 002.48.653 4.956 4.956 0 002.517-.69l5.167 5.33a5.418 5.418 0 00-1.066 4.073c.104.715.35 1.402.725 2.021.375.62.87 1.158 1.457 1.585a5.454 5.454 0 002.964 1.073c-.018.25-.018.5 0 .75a5.771 5.771 0 001.808 3.571 5.844 5.844 0 003.708 1.554v.6a5.692 5.692 0 001.828 3.73 5.768 5.768 0 003.888 1.515 5.655 5.655 0 001.925-.342 5.57 5.57 0 001.871 2.722 5.744 5.744 0 004.019 1.23 5.735 5.735 0 003.78-1.829l.416-.45.205.126a6.156 6.156 0 005.842.325 6.108 6.108 0 002.325-1.912 6.056 6.056 0 001.122-2.783l1.207.779a6.283 6.283 0 003.392.99 6.39 6.39 0 002.82-.66 6.346 6.346 0 002.232-1.835 6.198 6.198 0 001.207-2.997 6.34 6.34 0 002.468.51 6.425 6.425 0 001.304-.138 6.324 6.324 0 003.389-1.91 6.251 6.251 0 001.615-3.522l.808.522a6.065 6.065 0 004.787.803 6.092 6.092 0 003.01-1.776 6.006 6.006 0 001.063-6.578 6.056 6.056 0 00-2.3-2.622l-1.206-.774 2.843-2.877a5.023 5.023 0 003.133 2.094 5.05 5.05 0 003.717-.667l9.657-6.031a1.76 1.76 0 00.819-1.087 1.752 1.752 0 00-.21-1.341zM82.163 81.842c.423.264.76.646.965 1.098a2.514 2.514 0 01-.445 2.757 2.552 2.552 0 01-1.262.743 2.541 2.541 0 01-2.004-.336l-5.553-3.596-11.576-7.494-.9-.6a1.774 1.774 0 00-2.783 1.118 1.744 1.744 0 00.322 1.348c.143.192.323.352.53.472l12.494 8.093a2.806 2.806 0 011.199 1.777 2.776 2.776 0 01-.417 2.099 2.806 2.806 0 01-1.79 1.19 2.833 2.833 0 01-2.112-.414l-3.622-2.434-2.498-1.672-6.627-4.395a1.778 1.778 0 00-2.451.48 1.728 1.728 0 00-.007 1.948c.13.193.296.358.49.486l3.368 2.254 5.71 3.813a2.724 2.724 0 01.695 3.723 2.774 2.774 0 01-3.713.858l-5.873-3.754-2.149-1.373-.718-.456a1.776 1.776 0 00-2.517.477 1.747 1.747 0 00.604 2.473l2.867 1.834a2.58 2.58 0 011.148 1.612 2.565 2.565 0 01-.336 1.946 2.612 2.612 0 01-3.582.806l-.568-.341a5.953 5.953 0 000-1.091 5.72 5.72 0 00-.662-2.24 5.677 5.677 0 00-3.152-2.693l.138-.157a5.672 5.672 0 001.476-4.075 5.68 5.68 0 00-1.838-3.928l-.326-.264h-.03l-.253-.198a5.725 5.725 0 00-7.056.276 5.838 5.838 0 00-2.75-2.836 5.896 5.896 0 00-3.937-.449 5.42 5.42 0 00-1.154-2.177 5.467 5.467 0 00-2.002-1.448 5.501 5.501 0 00-4.817.268L17.4 71.914l11.975-16.828h4.17l-.518.24a4.047 4.047 0 00-1.679 1.468 4.009 4.009 0 00-.64 2.129v8.92a5.73 5.73 0 001.696 4.065 5.809 5.809 0 004.093 1.684 5.808 5.808 0 004.093-1.684 5.73 5.73 0 001.695-4.065V65.2H53.67c1.242 0 2.458.349 3.507 1.008L82.163 81.84zm-40.89 14.897l.434-.491a2.195 2.195 0 013.036-.216 2.171 2.171 0 01.785 1.525 2.157 2.157 0 01-.574 1.616l-.44.48a2.194 2.194 0 01-1.446.697 2.196 2.196 0 01-2.102-1.143 2.147 2.147 0 01.306-2.468zm-4.117-.743a2.2 2.2 0 01-2.342.61 2.196 2.196 0 01-1.03-.728 2.174 2.174 0 01-.455-1.171 2.14 2.14 0 01.544-1.619l5.528-6.222a2.188 2.188 0 011.648-.744 2.303 2.303 0 011.473.564 2.19 2.19 0 01.795 1.527 2.175 2.175 0 01-.56 1.626l-5.601 6.157zm-5.378-5.857a2.317 2.317 0 01-3.132.288 2.295 2.295 0 01-.862-1.54 2.276 2.276 0 01.494-1.691l1.883-2.296a2.328 2.328 0 011.81-.864 2.363 2.363 0 011.577.609c.432.39.702.925.76 1.501a2.314 2.314 0 01-.604 1.769l-.314.354-1.612 1.87zm-7.9-9.31a1.956 1.956 0 012.978-.008c.244.288.399.64.444 1.015a1.889 1.889 0 01-.41 1.445l-.821 1.019a1.957 1.957 0 01-1.342.796 1.974 1.974 0 01-1.501-.43 1.95 1.95 0 01-.709-1.383 1.938 1.938 0 01.534-1.459l.827-.995zm35.145-17.607a10.154 10.154 0 00-5.384-1.54H40.518a1.778 1.778 0 00-1.25.514 1.757 1.757 0 00-.519 1.242v4.394c0 .593-.237 1.162-.66 1.581a2.259 2.259 0 01-3.183 0 2.229 2.229 0 01-.66-1.58V58.91a.495.495 0 01.29-.45l9.917-4.634h26.864c3.362 5.036 8.71 13.057 12.325 18.416l-3.887 3.939-20.732-12.96z" fill="#039951"/><path d="M7.111 67.94a1.769 1.769 0 002.45-.456L16.57 57.31a1.753 1.753 0 00-.459-2.44 1.82 1.82 0 00-2.456.456L6.652 65.481a1.745 1.745 0 00.459 2.458zm77.865-12.044a1.757 1.757 0 00-.785 1.09c-.1.454-.02.93.223 1.326l6.64 10.538a1.752 1.752 0 001.502.828 1.771 1.771 0 001.55-.903 1.74 1.74 0 00-.053-1.783l-6.639-10.539a1.742 1.742 0 00-1.104-.78 1.743 1.743 0 00-1.334.223zm-33.462-10.36a23.063 23.063 0 0016.204-6.686 22.75 22.75 0 006.732-16.094c.002-1.3-.11-2.597-.332-3.878a1.743 1.743 0 00-.72-1.138 1.769 1.769 0 00-1.32-.295 1.763 1.763 0 00-1.148.714 1.74 1.74 0 00-.295 1.312c.68 3.9.136 7.913-1.558 11.495a19.348 19.348 0 01-7.91 8.53 19.537 19.537 0 01-22.187-1.97 19.282 19.282 0 01-6.26-9.79 19.174 19.174 0 01.52-11.587 19.314 19.314 0 017.113-9.198A19.52 19.52 0 0151.49 3.465a19.43 19.43 0 017.438 1.46 19.322 19.322 0 016.3 4.193 1.772 1.772 0 001.925.38c.323-.133.599-.358.793-.646a1.747 1.747 0 00.165-1.647 1.74 1.74 0 00-.385-.569A22.966 22.966 0 0058.166.97a23.085 23.085 0 00-11.12-.527 23.003 23.003 0 00-10.06 4.735 22.794 22.794 0 00-6.63 8.883 22.641 22.641 0 002.103 21.352 22.881 22.881 0 008.238 7.438 23.06 23.06 0 0010.793 2.71l.024-.025z" fill="#039951"/><path d="M38.67 22.606a1.77 1.77 0 00-1.301-.492 1.778 1.778 0 00-1.257.597 1.753 1.753 0 00-.432 1.315 1.75 1.75 0 00.661 1.218l14.02 12.223c.323.285.74.441 1.172.438h.157a1.758 1.758 0 001.207-.66l21.178-26.634a1.747 1.747 0 00-.345-2.394 1.777 1.777 0 00-2.425.218L51.28 33.613 38.671 22.606z" fill="#039951"/></svg>