<svg width="83" height="110" fill="none" xmlns="http://www.w3.org/2000/svg"><path d="M63.32 45.644H47.197a1.724 1.724 0 01-1.724-1.717V24.075a1.724 1.724 0 011.724-1.717H63.32a1.717 1.717 0 011.717 1.717v19.852a1.718 1.718 0 01-1.717 1.717zm-14.407-3.435h12.684V25.8H48.913v16.41zM63.32 55.298H19.667a1.725 1.725 0 010-3.441h43.655a1.724 1.724 0 010 3.44zm0 8.772H19.667a1.718 1.718 0 110-3.435h43.655a1.717 1.717 0 110 3.435zm0 9.428H19.667a1.717 1.717 0 110-3.434h43.655a1.717 1.717 0 010 3.434zm0 9.436H19.667a1.724 1.724 0 010-3.442h43.655a1.724 1.724 0 010 3.442zm.04-64.435H19.727a2.685 2.685 0 01-2.798-2.56V5.909a2.685 2.685 0 012.798-2.56h11.086a7.247 7.247 0 004.873-1.67 6.836 6.836 0 018.971 0 7.227 7.227 0 004.867 1.67H63.36a2.685 2.685 0 012.798 2.56v10.005A2.686 2.686 0 0163.36 18.5zm-42.99-3.435h42.349V6.783H49.523a10.608 10.608 0 01-7.22-2.6 3.594 3.594 0 00-4.264 0 10.608 10.608 0 01-7.227 2.6H20.369v8.281z" fill="#039951"/><path d="M71.51 101.446H11.483a1.713 1.713 0 01-1.593-1.059 1.717 1.717 0 01-.131-.659V14.627a1.717 1.717 0 011.724-1.718h6.531a1.724 1.724 0 010 3.442H13.2v81.68h56.584v-81.68H65.07a1.724 1.724 0 010-3.442h6.438a1.718 1.718 0 011.718 1.718v85.121a1.719 1.719 0 01-1.718 1.698z" fill="#039951"/><path d="M81.283 109.601H1.717A1.718 1.718 0 010 107.884V8.427A1.717 1.717 0 011.717 6.71h16.311a1.717 1.717 0 010 3.435H3.441v96.008h76.124V10.158H65.071a1.717 1.717 0 010-3.435h16.212A1.717 1.717 0 0183 8.441v99.456a1.718 1.718 0 01-1.717 1.704z" fill="#039951"/><path d="M62.691 92.674H43.708a1.725 1.725 0 010-3.441h18.983a1.724 1.724 0 010 3.44z" fill="#039951"/></svg>