<svg width="106" height="92" fill="none" xmlns="http://www.w3.org/2000/svg"><path d="M79.393 91.687H18.455a1.249 1.249 0 01-1.249-1.25V61.779a1.251 1.251 0 012.133-.884c.234.234.366.552.366.884v27.439h58.47V61.779a1.251 1.251 0 011.757-1.332 1.249 1.249 0 01.71 1.332v28.67a1.251 1.251 0 01-1.25 1.238z" fill="#039951"/><path d="M79.393 92H18.455a1.549 1.549 0 01-1.542-1.55V61.78a1.564 1.564 0 011.561-1.564 1.561 1.561 0 011.562 1.563v27.126h57.845V61.78a1.553 1.553 0 011.546-1.649 1.548 1.548 0 011.546 1.65v28.67a1.552 1.552 0 01-1.58 1.55zM18.455 60.854a.925.925 0 00-.918.925v28.67a.92.92 0 00.919.925h60.937a.924.924 0 00.924-.925V61.78a.925.925 0 10-1.842 0v27.75H19.38V61.78a.926.926 0 00-.924-.926zm60.938-24.019a1.249 1.249 0 01-1.25-1.25V8.159h-58.47v27.438a1.25 1.25 0 01-2.132.884 1.25 1.25 0 01-.366-.884V6.927a1.25 1.25 0 011.25-1.25h60.937a1.249 1.249 0 011.249 1.25v28.67a1.251 1.251 0 01-1.218 1.238z" fill="#039951"/><path d="M79.393 37.148a1.548 1.548 0 01-1.543-1.55V8.47H20.005v27.126a1.564 1.564 0 01-1.562 1.563 1.561 1.561 0 01-1.562-1.563V6.927a1.551 1.551 0 011.543-1.55h60.938a1.549 1.549 0 011.549 1.55v28.67a1.55 1.55 0 01-1.518 1.55zM19.38 7.846h59.095v27.751a.926.926 0 001.292.923.925.925 0 00.55-.923V6.927a.926.926 0 00-.924-.925H18.455a.917.917 0 00-.918.925v28.67a.938.938 0 101.874 0l-.03-27.751z" fill="#039951"/><path d="M84.778 40.31a1.249 1.249 0 01-1.25-1.25V2.8h-58.47v2.92h54.347a1.249 1.249 0 011.25 1.25v28.67a1.251 1.251 0 01-1.757 1.333 1.248 1.248 0 01-.71-1.332V8.158H23.84a1.249 1.249 0 01-1.25-1.25V1.55A1.25 1.25 0 0123.84.3h60.938a1.249 1.249 0 011.249 1.25v37.51a1.25 1.25 0 01-1.25 1.25z" fill="#039951"/><path d="M84.778 40.61a1.548 1.548 0 01-1.568-1.55V3.082H25.364v2.294h54.004a1.549 1.549 0 011.549 1.55v28.671a1.55 1.55 0 01-2.162 1.521 1.549 1.549 0 01-.93-1.521V8.471h-53.96a1.549 1.549 0 01-1.543-1.544V1.55A1.55 1.55 0 0123.865 0h60.938a1.549 1.549 0 011.53 1.55v37.51a1.551 1.551 0 01-1.555 1.55zM24.765 2.477h59.07V39.06a.938.938 0 101.873 0V1.55a.926.926 0 00-.924-.925H23.865a.917.917 0 00-.918.925v5.39a.919.919 0 00.918.918H78.5V35.61a.927.927 0 001.292.923.926.926 0 00.55-.923V6.927a.926.926 0 00-.924-.925H24.79l-.025-3.526z" fill="#039951"/><path d="M70.985 14.473H26.87a1.249 1.249 0 01-.884-2.135c.235-.234.553-.366.884-.366h44.115a1.249 1.249 0 01.883 2.135 1.249 1.249 0 01-.883.366z" fill="#039951"/><path d="M70.985 14.785H26.87a1.561 1.561 0 01-1.104-2.668c.293-.293.69-.458 1.104-.458h44.115a1.561 1.561 0 011.104 2.668c-.293.293-.69.458-1.104.458zm-44.115-2.5a.936.936 0 00-.663 1.6.937.937 0 00.663.275h44.115a.937.937 0 000-1.876H26.87zm44.115 8.07H26.87a1.249 1.249 0 01-.884-2.134c.235-.234.553-.366.884-.366h44.115a1.249 1.249 0 01.883 2.134 1.249 1.249 0 01-.883.366z" fill="#039951"/><path d="M70.985 20.668H26.87A1.561 1.561 0 0125.766 18c.293-.293.69-.458 1.104-.458h44.115a1.561 1.561 0 011.561 1.563 1.564 1.564 0 01-1.561 1.563zm-44.115-2.5a.937.937 0 000 1.875h44.115a.936.936 0 00.662-1.6.937.937 0 00-.662-.276H26.87zm44.115 62.247H26.87a1.25 1.25 0 010-2.469h44.115a1.25 1.25 0 010 2.47z" fill="#039951"/><path d="M70.985 80.728H26.87a1.55 1.55 0 110-3.095h44.115a1.549 1.549 0 011.031 2.609 1.55 1.55 0 01-1.031.486zm-44.115-2.47a.926.926 0 100 1.845h44.115a.924.924 0 000-1.844H26.87zm58.5 8.428h-5.977a1.249 1.249 0 01-.884-2.135c.235-.234.552-.366.884-.366h4.741V58.503a1.25 1.25 0 012.133-.884c.234.235.366.553.366.884v26.945a1.25 1.25 0 01-1.262 1.238z" fill="#039951"/><path d="M85.371 86.998h-5.978a1.561 1.561 0 01-1.562-1.563 1.563 1.563 0 011.562-1.563h4.441V58.504a1.563 1.563 0 012.666-1.105c.293.293.458.69.458 1.105v26.945a1.556 1.556 0 01-1.587 1.55zm-5.978-2.5a.937.937 0 000 1.875h5.978a.93.93 0 00.925-.925V58.503a.938.938 0 00-1.6-.663.938.938 0 00-.274.663v26.02l-5.029-.025zM45.267 53.59v2.925h10.788v2.113H45.267v6.252h-3.542v-6.252H36.69v-2.113h5.035V31.283H54.28c4.314 0 7.677.967 10.088 2.901 2.411 1.934 3.617 4.677 3.617 8.227 0 3.58-1.206 6.34-3.617 8.278-2.411 1.938-5.774 2.905-10.088 2.9h-9.014zm0-19.237v16.21h9.064c3.254 0 5.76-.7 7.496-2.106 1.736-1.407 2.617-3.407 2.617-5.996 0-2.588-.874-4.588-2.617-5.995-1.743-1.407-4.242-2.113-7.496-2.113h-9.065z" fill="#039951"/><path d="M45.579 65.174h-4.167v-6.252H36.36v-2.738h5.035V30.97h12.868c4.373 0 7.827 1 10.282 2.97 2.455 1.969 3.748 4.838 3.748 8.47 0 3.633-1.249 6.533-3.748 8.521-2.498 1.988-5.915 2.97-10.282 2.97H45.56v2.3h10.788v2.739H45.56l.019 6.233zm-3.542-.625h2.917v-6.252h10.77v-1.488H44.936v-3.55h9.326c4.223 0 7.552-.957 9.895-2.833 2.343-1.875 3.498-4.57 3.498-8.033 0-3.464-1.174-6.12-3.498-7.984-2.324-1.863-5.678-2.832-9.895-2.832H42.018V56.81h-5.035v1.488h5.035l.02 6.252zm12.294-13.673h-9.37V34.06h9.37c3.317 0 5.903.732 7.696 2.182 1.793 1.45 2.73 3.563 2.73 6.252 0 2.688-.919 4.776-2.73 6.251-1.812 1.476-4.38 2.132-7.696 2.132zm-8.746-.625h8.746c3.167 0 5.622-.681 7.302-2.038 1.68-1.357 2.499-3.276 2.499-5.752 0-2.475-.843-4.413-2.499-5.751-1.655-1.338-4.135-2.044-7.302-2.044h-8.746V50.25zm-19.14 2.257C4.981 52.508.396 35.872.352 35.69a1.251 1.251 0 011.852-1.424 1.25 1.25 0 01.566.799c.187.706 4.804 17.08 28.042 14.722a1.253 1.253 0 011.377 1.123 1.26 1.26 0 01-1.121 1.378 52.314 52.314 0 01-4.623.219z" fill="#039951"/><path d="M26.445 52.814C4.7 52.814.096 35.934.052 35.766a1.551 1.551 0 01.83-1.8 1.56 1.56 0 012.188 1.012c.18.688 4.716 16.817 27.71 14.485a1.569 1.569 0 011.721 1.404 1.572 1.572 0 01-1.402 1.722c-1.547.154-3.1.229-4.654.225zM1.558 34.434a.98.98 0 00-.563.188.945.945 0 00-.343.987c.044.163 4.579 16.58 25.793 16.58 1.474 0 3.017-.081 4.591-.237a.943.943 0 00.173-1.838.929.929 0 00-.366-.032C7.317 52.47 2.65 35.841 2.47 35.135a.95.95 0 00-.912-.694v-.007z" fill="#039951"/><path d="M28.375 57.403a1.249 1.249 0 01-.88-2.132l4.11-4.114-4.23-4.232a1.25 1.25 0 011.769-1.77l5.11 5.115a1.252 1.252 0 01.368.887 1.251 1.251 0 01-.368.882l-4.998 5.001a1.25 1.25 0 01-.88.363z" fill="#039951"/><path d="M28.375 57.715a1.55 1.55 0 01-1.1-.456 1.557 1.557 0 010-2.213l3.887-3.889-4.011-4.013a1.563 1.563 0 112.211-2.207l5.11 5.114a1.557 1.557 0 010 2.213l-4.997 5.001c-.293.29-.688.452-1.1.45zm-.118-12.61a.937.937 0 00-.663.27.938.938 0 000 1.325l4.448 4.458-4.329 4.332a.938.938 0 000 1.325.955.955 0 001.325 0l4.997-5.001a.938.938 0 000-1.325l-5.116-5.12a.923.923 0 00-.681-.263h.019zm50.686 7.665a44.436 44.436 0 01-4.616-.243 1.256 1.256 0 01.25-2.501c23.25 2.363 27.86-14.016 28.041-14.717a1.25 1.25 0 012.418.626c-.044.2-4.629 16.835-26.093 16.835z" fill="#039951"/><path d="M78.943 53.083a46.02 46.02 0 01-4.654-.244 1.561 1.561 0 01-1.333-2.017 1.563 1.563 0 011.046-1.037 1.53 1.53 0 01.606-.053c22.988 2.332 27.529-13.804 27.71-14.491a1.568 1.568 0 011.909-1.116 1.563 1.563 0 011.115 1.91c-.044.168-4.641 17.048-26.399 17.048zm-4.498-2.738a.918.918 0 00-.587.212.939.939 0 00.5 1.663c1.568.157 3.123.238 4.585.238 21.239 0 25.749-16.417 25.793-16.586a.94.94 0 00-.684-1.092.937.937 0 00-1.128.623c-.174.663-4.26 15.18-23.912 15.186a43.47 43.47 0 01-4.467-.238l-.1-.006z" fill="#039951"/><path d="M77.013 57.666a1.248 1.248 0 01-.881-.37l-4.997-5a1.251 1.251 0 01-.363-.882 1.251 1.251 0 01.363-.888l5.116-5.114a1.248 1.248 0 012.038.406 1.253 1.253 0 01-.27 1.364l-4.23 4.232 4.11 4.107a1.25 1.25 0 010 1.77 1.25 1.25 0 01-.886.375z" fill="#039951"/><path d="M77.013 57.978c-.415 0-.812-.164-1.106-.456L70.91 52.52a1.564 1.564 0 010-2.206l5.116-5.12a1.561 1.561 0 012.205 2.212l-4.01 4.014 3.891 3.889a1.564 1.564 0 01-1.105 2.67h.006zm.119-12.616a.945.945 0 00-.663.275l-5.11 5.12a.926.926 0 00-.274.663.95.95 0 00.275.663l4.997 5.001a.955.955 0 001.324 0 .938.938 0 000-1.325l-4.329-4.333L77.8 46.97a.938.938 0 000-1.325.929.929 0 00-.668-.282z" fill="#039951"/></svg>