<svg width="91" height="92" fill="none" xmlns="http://www.w3.org/2000/svg"><path d="M80.01 64.287a1.573 1.573 0 00-1.573-1.572H75.43a1.572 1.572 0 100 3.145h3.008a1.578 1.578 0 001.573-1.573zm6.95-1.572h-2.512a1.573 1.573 0 000 3.145h2.513a1.573 1.573 0 000-3.145zM74.962 51.673a1.568 1.568 0 00-1.573-1.572h-5.823a1.572 1.572 0 000 3.145h5.823a1.573 1.573 0 001.573-1.573zM87.553 50.1H85.04a1.573 1.573 0 000 3.146h2.513a1.572 1.572 0 000-3.145zm.593-12.613H62.12a1.573 1.573 0 000 3.145h26.026a1.573 1.573 0 100-3.145zm.592-12.62H78.602a1.572 1.572 0 000 3.145h10.136a1.573 1.573 0 100-3.145zm-16.961 3.15a1.572 1.572 0 100-3.145h-3.419a1.573 1.573 0 100 3.145h3.419z" fill="#039951"/><path d="M89.33 12.258H60.747l2.502-5.96a1.578 1.578 0 00-2.906-1.219l-3.282 7.823a1.54 1.54 0 00-.273.65L41.073 51.075l-15.457 36.88H14.329l6.364-4.262c.098-.069.188-.15.268-.24l.074-.085c.058-.075.11-.155.154-.239a.631.631 0 00.046-.085.242.242 0 010-.04L45.608 24.85l.405.17c.193.08.4.123.61.126a1.584 1.584 0 001.452-.969l2.94-7.019a1.57 1.57 0 00-.843-2.062l-.405-.166 1.926-4.592a4.387 4.387 0 00-2.347-5.737l-7.88-3.305a4.393 4.393 0 00-5.732 2.348L33.81 8.236l-.405-.165a1.562 1.562 0 00-1.208 0 1.59 1.59 0 00-.854.843l-2.929 6.996a1.544 1.544 0 000 1.203 1.563 1.563 0 00.85.854l.404.171L5.293 76.292v.04a.478.478 0 00-.029.097 1.23 1.23 0 00-.062.279.634.634 0 000 .108c-.014.12-.014.24 0 .36l2.034 10.733H1.573a1.573 1.573 0 000 3.145h84.191a1.572 1.572 0 000-3.145H29.012L33 78.44h17.064a1.579 1.579 0 000-3.15H34.339l3.988-9.464h31.108a1.573 1.573 0 000-3.145h-29.82l3.988-9.47h12.352a1.573 1.573 0 100-3.144H44.919l3.988-9.47h1.516a1.573 1.573 0 100-3.145h-.2l3.989-9.469h7.406a1.572 1.572 0 100-3.145h-6.08l3.99-9.469h29.9a1.572 1.572 0 100-3.145l-.097.034zM10.245 86.895l-1.402-7.407 7.664 3.208-6.262 4.2zM36.737 9.444l1.926-4.593a1.242 1.242 0 011.618-.66l7.874 3.298a1.242 1.242 0 01.667 1.619L46.896 13.7l-1.054-.439-9.105-3.817zm-3.07 2.12l13.867 5.816-1.71 4.12-.387-.16-13.058-5.475-.4-.165 1.687-4.137zm-1.089 7.805l10.159 4.256-23.77 56.7L8.814 76.07l23.764-56.701z" fill="#039951"/><path d="M85.775 75.323h-2.512a1.579 1.579 0 000 3.151h2.512a1.579 1.579 0 100-3.15zm-27.433 0a1.578 1.578 0 000 3.151h4.154a1.578 1.578 0 000-3.15h-4.154zm12.46 0a1.578 1.578 0 000 3.151h4.154a1.578 1.578 0 000-3.15h-4.154z" fill="#039951"/></svg>