<svg width="90" height="103" fill="none" xmlns="http://www.w3.org/2000/svg"><path d="M18.396 80.12a9.609 9.609 0 118.601-5.299 9.542 9.542 0 01-8.6 5.3zm0-15.432a5.819 5.819 0 105.203 8.45 5.767 5.767 0 00.604-2.614 5.825 5.825 0 00-5.807-5.836z" fill="#039951"/><path d="M1.901 102.893A1.9 1.9 0 010 100.992c0-9.85 2.83-15.964 9.174-19.827 6.132-3.73 12.355-3.73 18.493 0a1.901 1.901 0 01-1.974 3.247c-4.96-3.018-9.584-3.018-14.545 0-3.622 2.21-7.346 5.909-7.346 16.58a1.9 1.9 0 01-1.9 1.901zM70.852 80.12a9.61 9.61 0 118.594-5.299 9.584 9.584 0 01-8.594 5.3zm0-15.432a5.818 5.818 0 10-.013 11.636 5.818 5.818 0 00.013-11.636z" fill="#039951"/><path d="M87.347 102.893a1.893 1.893 0 01-1.344-.557 1.893 1.893 0 01-.557-1.344c0-10.671-3.712-14.37-7.346-16.58-4.96-3.018-9.584-3.018-14.545 0a1.902 1.902 0 01-1.974-3.247c6.138-3.73 12.355-3.73 18.493 0 6.343 3.863 9.174 9.977 9.174 19.827a1.9 1.9 0 01-1.901 1.901zM44.62 80.12a9.609 9.609 0 118.602-5.299 9.543 9.543 0 01-8.601 5.3zm0-15.432a5.818 5.818 0 10.013 11.636 5.818 5.818 0 00-.012-11.636z" fill="#039951"/><path d="M61.164 102.893a1.904 1.904 0 01-1.895-1.901c0-10.671-3.718-14.37-7.351-16.58-4.961-3.018-9.578-3.018-14.546 0-3.621 2.21-7.345 5.909-7.345 16.58a1.903 1.903 0 01-2.65 1.853 1.895 1.895 0 01-1.034-1.093 1.903 1.903 0 01-.112-.76c0-9.85 2.824-15.964 9.168-19.827 6.138-3.73 12.36-3.73 18.499 0 6.343 3.857 9.168 9.977 9.168 19.827a1.9 1.9 0 01-1.902 1.901zM44.615 56.95a6.863 6.863 0 01-6.361-3.85 1.9 1.9 0 01-.157-.755v-5.698a1.901 1.901 0 011.9-1.9h9.235a1.901 1.901 0 011.895 1.9v5.698c0 .261-.054.52-.157.76a6.875 6.875 0 01-6.355 3.845zm-2.716-5.1a3.483 3.483 0 005.432 0v-3.29h-5.432v3.29z" fill="#039951"/><path d="M49.232 48.548h-9.234a1.902 1.902 0 01-1.678-2.794c0-.241-.133-1.581-2.921-4.183-2.463-2.293-4.672-9.596-2.415-15.384 1.763-4.473 5.86-6.941 11.534-6.941h.151c5.752 0 9.875 2.529 11.619 7.122 2.046 5.39.296 12.747-2.517 15.234-2.722 2.414-2.988 3.657-3.018 3.94a1.9 1.9 0 01-1.545 3.019l.024-.013zm-7.242-3.802h5.04c.325-1.81 1.713-3.772 4.224-5.987 1.419-1.256 3.054-6.91 1.485-11.045-1.171-3.097-3.887-4.666-8.064-4.666h-.15c-4.123 0-6.815 1.521-7.998 4.533-1.738 4.412.175 10.025 1.449 11.208 2.68 2.487 3.724 4.478 4.038 5.981l-.025-.024zm2.685-28.542a1.9 1.9 0 01-1.901-1.901V2.008a1.9 1.9 0 113.796 0v12.295a1.902 1.902 0 01-1.895 1.901zM73.465 33.2h-12.3a1.901 1.901 0 110-3.802h12.3a1.9 1.9 0 110 3.802zm-45.339 0H15.83a1.901 1.901 0 010-3.802h12.295a1.901 1.901 0 010 3.802zm3.579-11.027a1.883 1.883 0 01-1.346-.561l-8.691-8.691a1.901 1.901 0 012.686-2.686l8.69 8.69a1.893 1.893 0 010 2.687 1.876 1.876 0 01-1.34.561zm25.887 0a1.878 1.878 0 01-1.34-.561 1.896 1.896 0 010-2.686l8.69-8.691a1.901 1.901 0 012.687 2.686l-8.692 8.69a1.897 1.897 0 01-1.345.562z" fill="#039951"/></svg>