<svg width="99" height="103" fill="none" xmlns="http://www.w3.org/2000/svg"><path d="M15.316 8.802a1.58 1.58 0 000 3.157h17.902a1.58 1.58 0 100-3.157H15.316zM9.599 3.16H38.91A1.58 1.58 0 0040.093.428 1.582 1.582 0 0038.91.003H9.573a1.58 1.58 0 100 3.157h.026z" fill="#039951"/><path d="M96.669 98.847h-8.106v-3.338h.723a1.58 1.58 0 001.581-1.582V87.44a1.582 1.582 0 00-1.581-1.581h-.723V82.63h.723a1.58 1.58 0 001.581-1.582v-6.481a1.583 1.583 0 00-1.29-1.543v-3.402a1.588 1.588 0 001.29-1.55v-6.488a1.582 1.582 0 00-1.581-1.581H56.83a1.58 1.58 0 00-1.574 1.581v4.945a1.574 1.574 0 00-1.259 1.543v6.495a1.582 1.582 0 001.259 1.55v3.227h-.73a1.58 1.58 0 00-1.574 1.582v6.494a1.576 1.576 0 001.575 1.575h.729v3.338h-.73a1.574 1.574 0 00-1.574 1.575v4.92H48.99V95.49h.097a1.58 1.58 0 001.575-1.582V87.44a1.582 1.582 0 00-1.575-1.581h-.097v-4.913a1.588 1.588 0 00-1.258-1.55v-4.712a1.582 1.582 0 00-1.581-1.575h-6.647a15.807 15.807 0 006.343-12.393 15.814 15.814 0 00-5.91-12.604c.38-.708.58-1.5.58-2.305v-17.52a13.438 13.438 0 00-2.097-7.218l-2.214-3.499a6.356 6.356 0 003.382-4.751l.916-6.605a1.582 1.582 0 00-3.13-.439l-.916 6.605a3.19 3.19 0 01-3.15 2.743h-18.07a3.187 3.187 0 01-3.142-2.724l-.903-6.23A1.575 1.575 0 008.1 6c-.05.2-.062.409-.032.614l.897 6.236a6.36 6.36 0 003.143 4.59L8.986 41.494a11.14 11.14 0 002.4 8.431l3.924 4.816a15.81 15.81 0 005.279 18.367h-6.86a1.574 1.574 0 00-1.575 1.575v6.262a1.575 1.575 0 001.252 1.543v4.951a1.582 1.582 0 001.581 1.576h.097v3.337h-.097a1.581 1.581 0 00-1.58 1.575v4.92H1.48a1.58 1.58 0 000 3.157h95.19a1.596 1.596 0 001.182-.425 1.586 1.586 0 00.37-1.782 1.58 1.58 0 00-1.552-.95zm-40.56-3.338h29.298v3.338H56.11v-3.338zm2.303-6.494h29.3v3.337h-29.3v-3.337zm29.3-12.867v3.332h-.136a1.62 1.62 0 00-.594-.117h-28.57v-3.228l29.3.013zm-1.26-3.156H57.155v-3.338h29.299v3.338zm-30.33 12.866v-3.331h.135c.187.075.386.114.587.116H85.42v3.228H56.122v-.013zM87.743 66.49H58.445v-3.338h29.298v3.338zM15.24 18.279h2.84l-2.214 15.042a1.589 1.589 0 001.336 1.795c.077.006.155.006.232 0a1.587 1.587 0 001.562-1.35l2.278-15.493h11.674l2.84 4.474a10.332 10.332 0 011.607 5.526v17.52a1.744 1.744 0 01-3.485 0V36.44a4.456 4.456 0 00-5.865-4.231c-.897.3-1.675.877-2.221 1.649l-5.712 8.03a3.984 3.984 0 00.29 4.959l.588.645a16.04 16.04 0 00-4.098 4.197l-3.052-3.758a7.98 7.98 0 01-1.717-6.036l3.059-23.608.058-.007zm15.488 26.359h-.69a15.75 15.75 0 00-6.247 1.291l-1.072-1.181a.807.807 0 01-.064-1.001l5.718-8.037a1.291 1.291 0 012.355.755v8.173zm-.69 3.13c.374 0 .755 0 1.129.059a4.906 4.906 0 004.46 2.873 4.76 4.76 0 001.935-.42 12.66 12.66 0 01-11.555 22.163 12.656 12.656 0 01-8.502-14.04 12.661 12.661 0 0112.5-10.634h.033zM16.543 95.504h29.292v3.337H16.542v-3.337zm1.671-6.495h29.299v3.338H18.214v-3.338zm-1.671-3.157v-3.33h29.292v3.33H16.542zm28.04-6.494H15.284v-3.099h29.299v3.099z" fill="#039951"/></svg>