<svg width="100" height="100" fill="none" xmlns="http://www.w3.org/2000/svg"><path d="M51.8 86.99H35.307l-.488-.378a4.415 4.415 0 01-1.904-3.258 4.79 4.79 0 011.545-3.573l.229-.204a3.259 3.259 0 00-1.855-5.564 3.258 3.258 0 00-3.672 3.227 3.216 3.216 0 001.002 2.33c.061.057.179.162.315.298a4.666 4.666 0 011.477 3.554 4.45 4.45 0 01-1.904 3.209l-.482.377H18.09a5.032 5.032 0 01-5.025-5.026V71.763a.513.513 0 00-.285-.13 1.385 1.385 0 00-.754.402l-.05.05a6.85 6.85 0 11-6.898-11.159 6.93 6.93 0 016.843 2.04c.224.26.525.44.86.514a.538.538 0 00.284-.13V48.099h16.48l.489.377a4.446 4.446 0 011.904 3.246 4.73 4.73 0 01-1.496 3.536c-.13.13-.235.228-.303.284a3.296 3.296 0 00-.853 3.19 3.222 3.222 0 002.324 2.275 3.296 3.296 0 004.068-3.16 3.233 3.233 0 00-.97-2.317l-.21-.192a4.784 4.784 0 01-1.577-3.598 4.432 4.432 0 011.904-3.264l.488-.377H51.8v15.25c.077.068.171.11.272.124a1.4 1.4 0 00.755-.45l.098-.106.087-.099a6.758 6.758 0 015.916-2.046 6.85 6.85 0 01-.97 13.63 6.799 6.799 0 01-4.946-2.107l-.124-.142-.105-.112a1.348 1.348 0 00-.717-.408.494.494 0 00-.272.13L51.8 86.99zm-15.17-3.593h11.578V70.416l.378-.489a4.327 4.327 0 013.486-1.916 4.765 4.765 0 013.233 1.434c.167.167.285.303.353.383a3.333 3.333 0 004.735-.142 3.24 3.24 0 00.791-2.578 3.295 3.295 0 00-2.744-2.8 3.226 3.226 0 00-2.788.927 4.755 4.755 0 01-.285.303 4.816 4.816 0 01-3.295 1.508 4.363 4.363 0 01-3.486-1.91l-.377-.488V51.666h-11.58a.483.483 0 00-.123.253c.06.314.229.596.476.798l.192.18A6.85 6.85 0 1125.8 59.593a6.843 6.843 0 011.884-6.71l.123-.105.093-.087c.233-.2.392-.472.451-.773a.564.564 0 00-.13-.253H16.639v12.982l-.377.482a4.358 4.358 0 01-3.5 1.916 4.945 4.945 0 01-3.356-1.52l-.247-.26a3.294 3.294 0 00-3.215-.878 3.196 3.196 0 00-2.281 2.362 3.27 3.27 0 00.618 2.813 3.245 3.245 0 004.995.098l.217-.228a4.878 4.878 0 013.263-1.422 4.357 4.357 0 013.5 1.916l.377.489v11.566a1.434 1.434 0 001.434 1.434h10.15a.563.563 0 00.13-.253 1.36 1.36 0 00-.433-.76l-.142-.124-.092-.08a6.849 6.849 0 015.563-11.746 6.848 6.848 0 013.901 11.745l-.253.223a1.291 1.291 0 00-.415.748.482.482 0 00.161.247l-.006-.019z" fill="#039951"/><path d="M67.67 99.971a6.8 6.8 0 01-6.627-5.075 6.886 6.886 0 012.033-6.85l.099-.074c.221-.216.366-.498.414-.803a.506.506 0 00-.13-.266H48.215v-16.5l.377-.488a4.364 4.364 0 013.48-1.91 4.816 4.816 0 013.301 1.502c.101.097.196.2.285.31a3.313 3.313 0 003.19.846 3.234 3.234 0 002.275-2.318 3.283 3.283 0 00-.619-2.838 3.346 3.346 0 00-4.871-.272c-.043.056-.111.13-.198.223a4.878 4.878 0 01-3.375 1.576 4.327 4.327 0 01-3.48-1.91l-.378-.488V48.142h15.251a.537.537 0 00.124-.253 1.348 1.348 0 00-.452-.773l-.105-.099-.099-.086a6.8 6.8 0 01-2.046-5.916 6.85 6.85 0 0113.6.97 6.751 6.751 0 01-2.114 4.946l-.136.117-.111.105a1.28 1.28 0 00-.408.736c.018.094.06.181.123.253H87.08v16.494l-.377.488a4.327 4.327 0 01-3.48 1.91 4.89 4.89 0 01-3.357-1.551l-.216-.248a3.245 3.245 0 00-2.795-.933 3.308 3.308 0 00-2.75 2.8 3.208 3.208 0 00.79 2.572 3.33 3.33 0 004.748.13l.29-.316a4.791 4.791 0 013.283-1.483 4.327 4.327 0 013.487 1.91l.377.488v11.474a5.032 5.032 0 01-5.026 5.026H71.836a.507.507 0 00-.13.266c.04.296.182.57.402.772l.05.056a6.843 6.843 0 01-4.532 11.974h.043zm-2.208-9.236A3.252 3.252 0 0064.53 94a3.19 3.19 0 002.361 2.287 3.295 3.295 0 004.037-3.165 3.258 3.258 0 00-1.125-2.473l-.229-.216a4.736 4.736 0 01-1.41-3.574 4.463 4.463 0 011.905-3.19l.482-.376H82.09a1.434 1.434 0 001.435-1.435V71.726a.494.494 0 00-.272-.13 1.39 1.39 0 00-.742.433l-.124.142-.08.093a6.802 6.802 0 01-4.946 2.108 6.85 6.85 0 114.946-11.603l.222.253c.195.215.452.362.736.42.1-.015.192-.06.266-.13v-11.56H70.55l-.482-.377a4.43 4.43 0 01-1.904-3.202 4.624 4.624 0 011.421-3.517c.167-.167.303-.285.384-.352a3.191 3.191 0 00.958-2.3 3.257 3.257 0 10-6.35 1.023c.161.485.435.924.799 1.283.068.055.173.154.309.284a4.743 4.743 0 011.49 3.536 4.414 4.414 0 01-1.898 3.245l-.489.378H51.806v11.56a.5.5 0 00.266.13c.308-.07.585-.239.785-.483l.18-.191a6.85 6.85 0 116.7 11.374 6.899 6.899 0 01-6.713-1.854l-.111-.13-.08-.08a1.373 1.373 0 00-.76-.458.5.5 0 00-.267.13v11.585h12.982l.483.377a4.427 4.427 0 011.903 3.233 4.86 4.86 0 01-1.508 3.623 2.632 2.632 0 01-.204.166z" fill="#039951"/><path d="M86.95 51.697H70.451l-.488-.377a4.475 4.475 0 01-1.904-3.215 4.635 4.635 0 011.428-3.505l.364-.34a3.225 3.225 0 00.97-2.318 3.264 3.264 0 00-3.671-3.227 3.258 3.258 0 00-1.855 5.564l.173.148a4.84 4.84 0 011.608 3.641 4.415 4.415 0 01-1.904 3.258l-.489.377H48.19V36.446a.5.5 0 00-.266-.13c-.29.063-.552.217-.748.44l-.099.104-.099.118a6.799 6.799 0 01-4.945 2.114 6.855 6.855 0 01-.97-13.637 6.799 6.799 0 015.915 2.046l.1.117.086.087c.196.233.463.394.76.458a.5.5 0 00.266-.13V12.807h16.493l.489.377a4.425 4.425 0 011.904 3.264 4.736 4.736 0 01-1.552 3.567l-.235.216a3.288 3.288 0 00-.97 2.325 3.239 3.239 0 00.952 2.3 3.295 3.295 0 003.09.852 3.207 3.207 0 002.325-2.268 3.301 3.301 0 00-.853-3.196 3.35 3.35 0 01-.297-.279 4.717 4.717 0 01-1.502-3.536 4.439 4.439 0 011.904-3.245l.488-.377H81.9a5.032 5.032 0 015.026 5.026V28.05a.514.514 0 00.284.13c.328-.07.624-.244.847-.495a6.936 6.936 0 016.862-2.052 6.8 6.8 0 014.902 5.063 6.85 6.85 0 01-11.807 6.09l-.043-.044a1.422 1.422 0 00-.76-.408.562.562 0 00-.285.13l.024 15.232zm-15.176-3.598h11.585V35.117l.377-.488a4.327 4.327 0 013.499-1.91 4.865 4.865 0 013.264 1.415l.154.167a3.32 3.32 0 005.057-.03 3.27 3.27 0 00.618-2.82 3.201 3.201 0 00-2.28-2.361 3.282 3.282 0 00-3.265.94 2.288 2.288 0 01-.173.179 4.995 4.995 0 01-3.381 1.539 4.327 4.327 0 01-3.5-1.91l-.376-.489V17.814a1.434 1.434 0 00-1.435-1.434h-10.15a.562.562 0 00-.13.253c.061.3.22.572.451.773l.112.099.105.093a6.85 6.85 0 11-9.496 0l.217-.198c.233-.2.394-.472.457-.773a.563.563 0 00-.13-.253H51.8v12.982l-.377.482a4.327 4.327 0 01-3.48 1.91 4.816 4.816 0 01-3.301-1.502 4.477 4.477 0 01-.285-.31 3.24 3.24 0 00-2.788-.927 3.306 3.306 0 00-2.745 2.807 3.253 3.253 0 00.792 2.578 3.344 3.344 0 004.735.142c.068-.08.18-.204.334-.358a4.741 4.741 0 013.258-1.46 4.327 4.327 0 013.48 1.91l.377.49v12.981h11.58a.563.563 0 00.13-.253 1.453 1.453 0 00-.489-.804l-.185-.167a6.85 6.85 0 119.495 0l-.099.08-.185.174a1.236 1.236 0 00-.383.704.53.53 0 00.111.266z" fill="#039951"/><path d="M32.334 64.654a6.843 6.843 0 01-4.532-11.98l.044-.044a1.36 1.36 0 00.408-.779.618.618 0 00-.13-.26h-15.27v-16.53l.378-.488a4.365 4.365 0 013.486-1.91 4.77 4.77 0 013.233 1.434c.167.173.279.297.334.365a3.339 3.339 0 004.754-.124 3.207 3.207 0 00.791-2.572 3.301 3.301 0 00-2.75-2.8 3.257 3.257 0 00-2.801.94l-.148.173a4.946 4.946 0 01-3.419 1.62 4.327 4.327 0 01-3.48-1.917l-.377-.482V17.851a5.032 5.032 0 015.025-5.026h10.225a.526.526 0 00.13-.247 1.342 1.342 0 00-.439-.76 1.276 1.276 0 00-.105-.1l-.117-.104a6.75 6.75 0 01-2.115-4.946 6.85 6.85 0 0113.6-.964 6.8 6.8 0 01-2.04 5.91l-.117.105a.613.613 0 00-.093.086c-.23.199-.39.469-.451.767.02.094.066.181.13.253H51.8v16.5l-.377.482a4.327 4.327 0 01-3.48 1.916 4.853 4.853 0 01-3.357-1.558l-.216-.24a3.337 3.337 0 00-4.872.271 3.251 3.251 0 00.201 4.3c.4.407.9.7 1.45.85a3.277 3.277 0 003.19-.847c.062-.068.154-.173.284-.303a4.821 4.821 0 013.301-1.508 4.326 4.326 0 013.48 1.91l.378.488v16.506H36.537a.552.552 0 00-.13.26c.059.337.234.643.495.865a6.887 6.887 0 012.052 6.862 6.8 6.8 0 01-5.063 4.902 6.996 6.996 0 01-1.557.173zM16.47 47.994h12.982l.482.377a4.463 4.463 0 011.904 3.196 4.741 4.741 0 01-1.403 3.567l-.167.155a3.325 3.325 0 00-1.193 2.522 3.264 3.264 0 003.264 3.251 3.202 3.202 0 003.134-2.374 3.251 3.251 0 00-.952-3.282 1.708 1.708 0 01-.173-.16 4.89 4.89 0 01-1.52-3.636 4.427 4.427 0 011.903-3.239l.489-.377h12.982V36.415a.501.501 0 00-.266-.13 1.39 1.39 0 00-.76.452l-.1.105-.092.105a6.899 6.899 0 01-6.714 1.854 6.8 6.8 0 01-4.918-8.038 6.855 6.855 0 0111.625-3.311l.192.216c.198.233.467.394.767.457a.5.5 0 00.266-.13V16.424H35.22l-.482-.377a4.433 4.433 0 01-1.904-3.252 4.717 4.717 0 011.496-3.536c.13-.13.241-.222.31-.284a3.233 3.233 0 00.92-2.782 3.301 3.301 0 00-2.8-2.75 3.264 3.264 0 00-3.464 4.473c.165.395.407.753.713 1.053.08.068.204.18.359.334a4.643 4.643 0 011.446 3.536 4.433 4.433 0 01-1.904 3.208l-.482.377H17.88a1.428 1.428 0 00-1.428 1.428v10.145a.47.47 0 00.26.13c.311-.07.591-.24.797-.483l.167-.191a6.8 6.8 0 015.892-2.022 6.85 6.85 0 01-.965 13.6 6.8 6.8 0 01-4.945-2.108l-.08-.092-.174-.192a1.304 1.304 0 00-.692-.377.481.481 0 00-.266.13l.025 11.603z" fill="#039951"/></svg>