<svg width="55" height="46" fill="none" xmlns="http://www.w3.org/2000/svg"><path d="M47.49 30.193l-.73-.682a1 1 0 00-.27.682h1zm5.937-6.365l.731.682a1 1 0 00.032-1.329l-.763.647zm-5.936-7.002h-1a1 1 0 00.237.647l.763-.647zM2 6a4 4 0 014-4V0a6 6 0 00-6 6h2zm0 34V6H0v34h2zm4 4a4 4 0 01-4-4H0a6 6 0 006 6v-2zm36.49 0H6v2h36.49v-2zm4-4a4 4 0 01-4 4v2a6 6 0 006-6h-2zm0-9.807V40h2v-9.807h-2zm6.206-7.047l-5.937 6.365 1.463 1.364 5.936-6.365-1.462-1.364zm-5.968-5.673l5.936 7.002 1.526-1.294-5.937-7.002-1.525 1.294zM46.49 6v10.826h2V6h-2zm-4-4a4 4 0 014 4h2a6 6 0 00-6-6v2zM6 2h36.49V0H6v2z" fill="#fff"/><circle r="2.583" transform="matrix(-1 0 0 1 32.547 23.507)" fill="#fff"/><circle r="2.583" transform="matrix(-1 0 0 1 24.614 23.507)" fill="#fff"/><circle r="2.583" transform="matrix(-1 0 0 1 16.866 23.507)" fill="#fff"/></svg>